HIERARCHY
ROOT SpineBase
{
  OFFSET 0.000000 0.000000 0.000000
  CHANNELS 6 Xposition Yposition Zposition Zrotation Xrotation Yrotation
  JOINT SpineMid
  {
    OFFSET 0.000000 31.361342 0.000000
    CHANNELS 3 Zrotation Xrotation Yrotation
    JOINT SpineShoulder
    {
      OFFSET 0.030352 23.250589 -0.697417
      CHANNELS 3 Zrotation Xrotation Yrotation
      JOINT Neck
      {
        OFFSET 0.047314 7.680960 -0.547115
        CHANNELS 3 Zrotation Xrotation Yrotation
        JOINT Head
        {
          OFFSET 5.339462 12.577741 2.242505
          CHANNELS 3 Zrotation Xrotation Yrotation
          End Site
          {
            OFFSET 0 0 0
          }
        }
      }
      JOINT ShoulderLeft
      {
        OFFSET -10.255922 -3.764544 -12.091096
        CHANNELS 3 Zrotation Xrotation Yrotation
        JOINT ElbowLeft
        {
          OFFSET -6.625796 -26.981875 -7.672132
          CHANNELS 3 Zrotation Xrotation Yrotation
          JOINT WristLeft
          {
            OFFSET 3.001554 -23.406687 -4.526902
            CHANNELS 3 Zrotation Xrotation Yrotation
            JOINT HandLeft
            {
              OFFSET 1.083823 -8.132824 0.854375
              CHANNELS 3 Zrotation Xrotation Yrotation
              JOINT HandTipLeft
              {
                OFFSET 1.100110 -7.115782 0.390689
                CHANNELS 3 Zrotation Xrotation Yrotation
                End Site
                {
                  OFFSET 0 0 0
                }
              }
              JOINT ThumbLeft
              {
                OFFSET 3.379930 0.102045 2.216487
                CHANNELS 3 Zrotation Xrotation Yrotation
                End Site
                {
                  OFFSET 0 0 0
                }
              }
            }
          }
        }
      }
      JOINT ShoulderRight
      {
        OFFSET 11.366086 -4.580197 10.592736
        CHANNELS 3 Zrotation Xrotation Yrotation
        JOINT ElbowRight
        {
          OFFSET 1.743364 -30.401516 8.531184
          CHANNELS 3 Zrotation Xrotation Yrotation
          JOINT WristRight
          {
            OFFSET 1.362627 -23.719224 0.253517
            CHANNELS 3 Zrotation Xrotation Yrotation
            JOINT HandRight
            {
              OFFSET -2.351608 -1.278627 -0.005167
              CHANNELS 3 Zrotation Xrotation Yrotation
              JOINT HandTipRight
              {
                OFFSET 1.110333 -8.298551 0.518567
                CHANNELS 3 Zrotation Xrotation Yrotation
                End Site
                {
                  OFFSET 0 0 0
                }
              }
              JOINT ThumbRight
              {
                OFFSET -2.004464 0.707402 -2.281588
                CHANNELS 3 Zrotation Xrotation Yrotation
                End Site
                {
                  OFFSET 0 0 0
                }
              }
            }
          }
        }
      }
    }
  }
  JOINT HipLeft
  {
    OFFSET -4.532889 1.693002 -8.285628
    CHANNELS 3 Zrotation Xrotation Yrotation
    JOINT KneeLeft
    {
      OFFSET -11.324403 -33.887581 -2.910522
      CHANNELS 3 Zrotation Xrotation Yrotation
      JOINT AnkleLeft
      {
        OFFSET -6.523192 -39.878979 10.088528
        CHANNELS 3 Zrotation Xrotation Yrotation
        JOINT FootLeft
        {
          OFFSET 3.958596 -7.026081 -6.053173
          CHANNELS 3 Zrotation Xrotation Yrotation
          End Site
          {
            OFFSET 0 0 0
          }
        }
      }
    }
  }
  JOINT HipRight
  {
    OFFSET 5.471416 0.006645 1.461569
    CHANNELS 3 Zrotation Xrotation Yrotation
    JOINT KneeRight
    {
      OFFSET -2.678876 -36.255640 3.766707
      CHANNELS 3 Zrotation Xrotation Yrotation
      JOINT AnkleRight
      {
        OFFSET -5.291812 -38.957138 16.396186
        CHANNELS 3 Zrotation Xrotation Yrotation
        JOINT FootRight
        {
          OFFSET 7.689017 -3.917127 -11.014569
          CHANNELS 3 Zrotation Xrotation Yrotation
          End Site
          {
            OFFSET 0 0 0
          }
        }
      }
    }
  }
}
MOTION
Frames: 14
Frame Time: 0.033333
-50.312991 84.148094 333.401682 1.283855 -0.211479 -38.253943 0.246033 -0.051252 38.302161 -0.000070 -0.056629 0.062605 12.614086 -12.811308 4.918829 0.000000 0.000000 0.000000 -0.422133 -3.009598 0.489340 -0.828519 5.711842 -0.292253 -7.223024 -6.236818 -2.069515 4.130748 6.727826 1.547095 0.000000 0.000000 0.000000 0.000000 0.000000 0.000000 16.696401 2.136589 4.688146 32.908038 52.503538 -27.442994 17.255375 -38.512989 -77.623745 -61.307592 -12.900498 74.580549 0.000000 0.000000 0.000000 0.000000 0.000000 0.000000 -1.139141 -0.628816 38.250061 -0.391426 -1.027945 0.065431 -10.575976 -13.132032 0.270323 0.000000 0.000000 0.000000 -0.128177 -1.187856 38.391192 -1.473337 0.587064 -0.471969 -3.660551 -4.297552 5.060792 0.000000 0.000000 0.000000
-50.373637 84.166735 333.366687 1.502736 -0.219113 -37.890201 0.235627 -0.026976 37.945641 -0.010509 -0.058592 0.071306 14.103478 -13.884140 5.472148 0.000000 0.000000 0.000000 -0.139080 -3.217120 0.392989 -2.480733 5.994393 0.147568 -7.210436 -6.910943 -2.615021 3.376784 7.821414 1.881128 0.000000 0.000000 0.000000 0.000000 0.000000 0.000000 23.747175 3.822721 6.328501 39.035518 57.189327 -40.280186 5.412293 -39.226394 -93.130051 -59.621225 -12.614385 88.885695 0.000000 0.000000 0.000000 0.000000 0.000000 0.000000 -1.320558 -0.749959 37.884431 -0.326113 -1.134650 0.099581 -10.704215 -12.935067 0.380593 0.000000 0.000000 0.000000 -0.266776 -1.303911 38.034387 -1.507643 0.546886 -0.465664 -0.117892 2.810426 7.703999 0.000000 0.000000 0.000000
-50.461718 84.185132 333.342091 1.695946 -0.199311 -37.237627 0.208383 -0.018415 37.298383 -0.023997 -0.061554 0.077680 15.360756 -14.694293 5.906816 0.000000 0.000000 0.000000 0.448599 -3.256002 0.183885 -4.424787 6.147084 0.736814 -7.152440 -7.213557 -3.100100 3.437460 9.240706 2.288423 0.000000 0.000000 0.000000 0.000000 0.000000 0.000000 30.441750 5.731838 7.664406 44.893933 59.634737 -53.060238 -12.051220 -29.061402 -112.619191 -47.901561 -7.934423 111.966808 0.000000 0.000000 0.000000 0.000000 0.000000 0.000000 -1.404547 -0.043448 36.976459 -0.837049 -1.844010 0.369959 -10.919685 -12.964354 0.445700 0.000000 0.000000 0.000000 -0.382404 -1.447235 37.387663 -1.510999 0.507230 -0.451638 0.658933 4.958817 8.854639 0.000000 0.000000 0.000000
-50.583685 84.207294 333.313903 1.876679 -0.150342 -36.333580 0.170516 -0.028580 36.398224 -0.039326 -0.072167 0.082653 16.269101 -15.262598 6.219527 0.000000 0.000000 0.000000 0.960104 -3.378053 0.026174 -5.925872 6.542567 1.217856 -7.094485 -6.633607 -3.287411 2.996779 8.971983 2.413336 0.000000 0.000000 0.000000 0.000000 0.000000 0.000000 35.712362 7.586895 8.503446 48.862584 60.312239 -62.663887 -24.579688 -15.237566 -123.332079 -41.526624 -1.341465 127.533570 0.000000 0.000000 0.000000 0.000000 0.000000 0.000000 -1.368912 0.182272 35.977537 -1.124154 -2.090649 0.477723 -11.104076 -12.988450 0.507595 0.000000 0.000000 0.000000 -0.443139 -1.655314 36.495036 -1.497781 0.547917 -0.436671 -0.532892 3.340338 9.356613 0.000000 0.000000 0.000000
-50.720062 84.225216 333.268606 2.038290 -0.079856 -35.150073 0.130580 -0.042766 35.217302 -0.048871 -0.073286 0.086743 17.436090 -15.765062 6.491279 0.000000 0.000000 0.000000 1.355756 -3.581793 -0.077837 -7.251240 7.048729 1.653690 -6.398065 -5.820448 -3.280771 2.742574 8.806116 2.468631 0.000000 0.000000 0.000000 0.000000 0.000000 0.000000 38.396624 9.020503 8.764014 49.990345 60.102099 -66.637465 -34.498513 -2.079749 -126.735195 -43.235727 5.467073 140.657333 0.000000 0.000000 0.000000 0.000000 0.000000 0.000000 -1.263427 0.383608 34.710008 -1.392712 -2.240750 0.573395 -11.126585 -12.857182 0.548877 0.000000 0.000000 0.000000 -0.478759 -1.857228 35.324456 -1.536400 0.503565 -0.426820 -4.432996 -3.185631 9.269530 0.000000 0.000000 0.000000
-50.864754 84.232612 333.213191 2.176520 0.014433 -33.711853 0.086328 -0.054530 33.780041 -0.057038 -0.065714 0.089485 18.656445 -16.278881 6.780455 0.000000 0.000000 0.000000 1.550209 -3.920971 -0.089593 -8.141949 7.807879 1.976739 -5.909244 -6.158602 -3.495131 1.957246 10.333040 2.881787 0.000000 0.000000 0.000000 0.000000 0.000000 0.000000 40.752110 10.461990 8.902619 46.518557 58.876140 -65.531166 -42.917513 8.398798 -125.395045 -51.712932 6.527140 153.835390 0.000000 0.000000 0.000000 0.000000 0.000000 0.000000 -1.135710 0.565377 33.188893 -1.614186 -2.400488 0.674517 -10.823066 -12.269213 0.616528 0.000000 0.000000 0.000000 -0.456242 -2.036190 33.905132 -1.669058 0.416453 -0.433319 -8.531075 -10.193694 7.928271 0.000000 0.000000 0.000000
-50.996741 84.230679 333.153633 2.322917 0.104382 -32.124222 0.049221 -0.049526 32.193625 -0.061847 -0.047921 0.093097 19.584245 -16.640692 6.976424 0.000000 0.000000 0.000000 1.420135 -4.375124 0.003677 -8.511090 8.667497 2.132981 -5.832910 -7.020291 -3.829924 1.281574 11.789317 3.299691 0.000000 0.000000 0.000000 0.000000 0.000000 0.000000 41.302944 11.333016 8.817827 46.554162 57.813154 -65.283420 -45.115783 8.730686 -125.396940 -52.079909 8.180137 154.374962 0.000000 0.000000 0.000000 0.000000 0.000000 0.000000 -1.067632 0.721874 31.518110 -1.761566 -2.569415 0.777613 -10.765613 -11.952781 0.683488 0.000000 0.000000 0.000000 -0.444084 -2.200039 32.338193 -1.842793 0.311756 -0.447937 -17.153062 -23.241303 0.673627 0.000000 0.000000 0.000000
-51.114249 84.207283 333.067444 2.441800 0.227110 -30.461917 0.034037 -0.056986 30.531573 -0.059021 -0.027751 0.096434 20.175753 -16.927089 7.127920 0.000000 0.000000 0.000000 1.309289 -4.816822 0.088424 -9.038746 9.341655 2.323090 -4.762793 -8.218666 -4.064966 0.620884 13.181393 3.565256 0.000000 0.000000 0.000000 0.000000 0.000000 0.000000 42.219029 11.951639 8.885016 40.131554 56.830187 -60.652334 -50.426287 15.948573 -121.196971 -49.556028 13.755654 155.603717 0.000000 0.000000 0.000000 0.000000 0.000000 0.000000 -1.006678 0.811193 29.783678 -1.878545 -2.725593 0.858047 -10.412618 -11.546993 0.598772 0.000000 0.000000 0.000000 -0.346195 -2.349787 30.705067 -2.158854 0.171885 -0.494381 -20.448579 -27.159099 -2.021320 0.000000 0.000000 0.000000
-51.202211 84.151509 332.952411 2.557706 0.378731 -28.894955 0.047868 -0.069388 28.965036 -0.044821 -0.018355 0.101653 20.715899 -17.127120 7.220138 0.000000 0.000000 0.000000 1.234163 -5.204148 0.139278 -9.432952 9.890223 2.472435 -5.280846 -9.800229 -4.667893 1.112086 15.095171 4.054016 0.000000 0.000000 0.000000 0.000000 0.000000 0.000000 41.943951 12.851741 8.616629 38.864056 55.038352 -57.888467 -54.215730 16.530929 -119.137732 -54.914377 17.834283 165.116199 0.000000 0.000000 0.000000 0.000000 0.000000 0.000000 -1.003699 0.783100 28.167585 -1.862438 -2.817953 0.920626 -10.221255 -11.498535 0.372238 0.000000 0.000000 0.000000 -0.202734 -2.487230 29.171847 -2.569369 0.002779 -0.560611 -28.984798 -35.105273 -10.128657 0.000000 0.000000 0.000000
-51.245901 84.077738 332.821625 2.673572 0.544114 -27.553636 0.079045 -0.085862 27.624340 -0.026425 -0.014507 0.107931 21.057379 -17.312753 7.304905 0.000000 0.000000 0.000000 1.043796 -5.546093 0.199879 -9.696684 10.194385 2.553104 -5.844936 -11.214844 -5.251261 1.757516 16.160363 4.305128 0.000000 0.000000 0.000000 0.000000 0.000000 0.000000 40.543080 13.621415 8.180774 41.598743 53.825663 -57.170204 -55.255508 13.527631 -120.064860 -56.274714 18.574935 162.625717 0.000000 0.000000 0.000000 0.000000 0.000000 0.000000 -1.088437 0.650521 26.799870 -1.705704 -2.852945 0.966068 -10.209221 -11.130044 0.540339 0.000000 0.000000 0.000000 -0.023567 -2.608211 27.868164 -3.058433 -0.147371 -0.649394 -30.180883 -36.139684 -11.137010 0.000000 0.000000 0.000000
-51.283324 83.998237 332.692399 2.766808 0.723196 -26.417922 0.109616 -0.120493 26.488255 -0.006410 -0.001626 0.112839 21.096031 -17.471078 7.370359 0.000000 0.000000 0.000000 0.854968 -5.845588 0.254583 -9.994884 10.220964 2.612704 -6.202881 -12.556057 -5.801062 2.141905 17.089733 4.514281 0.000000 0.000000 0.000000 0.000000 0.000000 0.000000 38.246897 14.017937 7.713098 44.966472 52.850976 -55.951760 -54.652853 10.316898 -122.139789 -55.842239 17.317474 157.132568 0.000000 0.000000 0.000000 0.000000 0.000000 0.000000 -1.136897 0.489967 25.647811 -1.534977 -2.816411 1.001258 -12.520022 -15.014051 -0.559845 0.000000 0.000000 0.000000 0.149305 -2.684483 26.763118 -3.522767 -0.354004 -0.729857 -23.194556 -30.394100 -4.063851 0.000000 0.000000 0.000000
-51.342506 83.924280 332.529394 2.796236 0.946502 -25.471163 0.148841 -0.179530 25.538966 0.019926 -0.000461 0.115840 21.060147 -17.607992 7.422661 0.000000 0.000000 0.000000 0.741036 -6.127745 0.302917 -10.177089 10.200195 2.633213 -6.819426 -14.064141 -6.423754 2.184150 18.281160 4.858538 0.000000 0.000000 0.000000 0.000000 0.000000 0.000000 36.274899 15.125792 7.108636 48.613099 52.164539 -55.263310 -54.303124 7.228620 -124.945400 -56.238503 15.386793 154.238790 0.000000 0.000000 0.000000 0.000000 0.000000 0.000000 -1.036518 0.282273 24.702754 -1.455833 -2.761785 1.017921 -12.197325 -13.453282 0.339036 0.000000 0.000000 0.000000 0.446171 -2.785502 25.856216 -4.012858 -0.508431 -0.814312 -12.460404 -17.053430 6.224778 0.000000 0.000000 0.000000
-51.403416 83.855401 332.346974 2.812670 1.186729 -24.736615 0.170719 -0.260363 24.800543 0.046340 -0.021589 0.118085 20.981254 -17.632612 7.398623 0.000000 0.000000 0.000000 0.637336 -6.371933 0.353123 -10.213043 10.196677 2.614388 -7.607197 -14.077770 -6.694833 2.963775 18.334741 4.889221 0.000000 0.000000 0.000000 0.000000 0.000000 0.000000 34.270861 16.306892 6.502895 53.256920 51.693805 -55.163442 -54.223660 3.709909 -128.311519 -56.483177 13.309523 151.323723 0.000000 0.000000 0.000000 0.000000 0.000000 0.000000 -0.880347 0.035624 23.981669 -1.406370 -2.671332 1.025124 -10.027986 -7.608703 2.672120 0.000000 0.000000 0.000000 0.747442 -2.938496 25.161646 -4.400697 -0.606869 -0.872934 -7.635517 -8.489017 11.089140 0.000000 0.000000 0.000000
-51.453121 83.789551 332.172830 2.826741 1.427395 -24.259516 0.175071 -0.376428 24.318828 0.064245 -0.052901 0.118800 20.978633 -17.587020 7.336528 0.000000 0.000000 0.000000 0.479775 -6.618039 0.436253 -10.051132 10.263942 2.532313 -7.122330 -13.236692 -6.353919 1.973954 16.703173 4.635498 0.000000 0.000000 0.000000 0.000000 0.000000 0.000000 31.867788 16.936883 5.998477 59.097118 51.550909 -55.661809 -53.642975 -0.160534 -132.356318 -54.193770 11.730613 147.207710 0.000000 0.000000 0.000000 0.000000 0.000000 0.000000 -0.742237 -0.212564 23.515870 -1.399033 -2.651910 1.029107 -6.942262 1.076353 5.376146 0.000000 0.000000 0.000000 1.021432 -3.134061 24.721835 -4.675518 -0.658555 -0.905957 -4.525217 -1.717247 14.256111 0.000000 0.000000 0.000000
